<?xml version="1.0" standalone="no"?>
<svg viewBox="0 0 200 200" xmlns="http://www.w3.org/2000/svg">
  <path fill="#000000" d="M44.3,-63.2C59.2,-59.4,74.3,-50.1,77.6,-37.1C80.9,-24.2,72.4,-7.5,69.3,9.5C66.1,26.5,68.4,43.9,61.5,55C54.5,66.2,38.4,71.2,22.3,75.9C6.1,80.7,-10.1,85.2,-25,82.2C-39.9,79.2,-53.5,68.6,-62.9,55.7C-72.3,42.7,-77.6,27.3,-77.9,12.4C-78.3,-2.6,-73.8,-17.1,-67.7,-31.2C-61.7,-45.2,-54.1,-58.9,-42.6,-64.2C-31.1,-69.6,-15.5,-66.6,-0.4,-65.9C14.7,-65.3,29.4,-67,44.3,-63.2Z" transform="translate(100 100)" />
</svg>
