<svg width="25" height="25" viewBox="0 0 25 25" fill="none" xmlns="http://www.w3.org/2000/svg">
<g clip-path="url(#clip0_1_86)">
<path fill-rule="evenodd" clip-rule="evenodd" d="M12.5002 0.520844C9.53274 0.522383 6.66257 1.5734 4.40292 3.48597C2.14328 5.39854 0.6415 8.04794 0.166126 10.9604C-0.309248 13.8729 0.272774 16.8586 1.80813 19.3835C3.34349 21.9085 5.73206 23.8081 8.54674 24.7427C9.1677 24.8579 9.4016 24.4731 9.4016 24.1458C9.4016 23.8186 9.38917 22.8698 9.38503 21.8325C5.90764 22.5837 5.17284 20.3651 5.17284 20.3651C4.60569 18.9244 3.78601 18.5457 3.78601 18.5457C2.65172 17.776 3.87089 17.7904 3.87089 17.7904C5.1273 17.8789 5.7876 19.0726 5.7876 19.0726C6.90119 20.9722 8.71232 20.4227 9.42436 20.1017C9.53614 19.2969 9.86111 18.7495 10.2192 18.4387C7.44142 18.1259 4.52289 17.0598 4.52289 12.2973C4.50567 11.0622 4.96662 9.86777 5.81036 8.96114C5.68203 8.64831 5.25356 7.38463 5.93248 5.66817C5.93248 5.66817 6.98192 5.33476 9.37056 6.94214C11.4194 6.38504 13.581 6.38504 15.6299 6.94214C18.0164 5.33476 19.0638 5.66817 19.0638 5.66817C19.7448 7.38051 19.3163 8.64419 19.188 8.96114C20.0344 9.86792 20.4963 11.0644 20.4775 12.3014C20.4775 17.0742 17.5528 18.1259 14.7709 18.4325C15.218 18.8195 15.6174 19.5748 15.6174 20.7356C15.6174 22.3985 15.603 23.7363 15.603 24.1458C15.603 24.4772 15.8286 24.8641 16.462 24.7427C19.277 23.808 21.6658 21.908 23.2011 19.3827C24.7364 16.8573 25.3181 13.8712 24.8422 10.9584C24.3663 8.04564 22.8638 5.39621 20.6034 3.48397C18.343 1.57174 15.4722 0.521407 12.5043 0.520844H12.5002Z" fill="#191717"/>
<path d="M8.36226 20.8076C8.36226 20.9084 8.24636 20.9949 8.09733 20.9969C7.94829 20.999 7.82617 20.9167 7.82617 20.8158C7.82617 20.715 7.94208 20.6285 8.09111 20.6265C8.24014 20.6244 8.36226 20.7047 8.36226 20.8076Z" fill="#191717"/>
<path d="M9.31458 20.6491C9.33321 20.7499 9.22971 20.8549 9.08068 20.8796C8.93165 20.9043 8.80125 20.8446 8.78262 20.7458C8.76399 20.647 8.87162 20.54 9.01651 20.5133C9.1614 20.4865 9.29595 20.5483 9.31458 20.6491Z" fill="#191717"/>
<path d="M7.33985 20.7376C7.3088 20.8343 7.16804 20.8775 7.02729 20.8364C6.88654 20.7952 6.7934 20.68 6.8203 20.5812C6.84721 20.4824 6.99004 20.4371 7.13286 20.4824C7.27568 20.5277 7.36675 20.6368 7.33985 20.7376Z" fill="#191717"/>
<path d="M6.4021 20.3342C6.3338 20.4104 6.19512 20.3898 6.08127 20.2869C5.96743 20.184 5.94051 20.044 6.00882 19.9699C6.07713 19.8958 6.21581 19.9164 6.33379 20.0173C6.45178 20.1181 6.47455 20.2601 6.4021 20.3342Z" fill="#191717"/>
<path d="M5.73365 19.6427C5.65707 19.6962 5.52666 19.6427 5.45421 19.5357C5.43418 19.5165 5.41825 19.4935 5.40737 19.468C5.39648 19.4425 5.39087 19.4152 5.39087 19.3875C5.39087 19.3598 5.39648 19.3324 5.40737 19.307C5.41825 19.2815 5.43418 19.2585 5.45421 19.2393C5.5308 19.1879 5.66121 19.2393 5.73365 19.3443C5.8061 19.4492 5.80817 19.5892 5.73365 19.6427Z" fill="#191717"/>
<path d="M5.24094 18.9285C5.19808 18.95 5.14904 18.956 5.10222 18.9455C5.0554 18.935 5.01371 18.9086 4.98428 18.8709C4.90356 18.7845 4.88699 18.6651 4.94908 18.6116C5.01118 18.5581 5.12296 18.5828 5.20369 18.6692C5.28441 18.7556 5.30304 18.875 5.24094 18.9285Z" fill="#191717"/>
<path d="M4.73387 18.3667C4.70697 18.4284 4.60761 18.4469 4.52689 18.4037C4.44616 18.3605 4.38614 18.2802 4.41512 18.2164C4.4441 18.1526 4.54138 18.1362 4.62211 18.1794C4.70283 18.2226 4.76492 18.3049 4.73387 18.3667Z" fill="#191717"/>
</g>
<defs>
<clipPath id="clip0_1_86">
<rect width="25" height="25" fill="white"/>
</clipPath>
</defs>
</svg>
