<svg width="100" height="100" viewBox="0 0 100 100" fill="none" xmlns="http://www.w3.org/2000/svg">
<g clip-path="url(#clip0_5_2)">
<rect width="100" height="100" fill="white"/>
<g clip-path="url(#clip1_5_2)">
<path d="M63.2053 30.0105C65.7263 27.6 70.4579 24.3789 77.6316 24.4C77.6316 24.4 71.3526 18.5474 63.2842 20.9842C65.5421 18.0737 69.5684 13.6158 74.7316 11.1632C74.7316 11.1632 68.3895 8.46316 60.3947 13.1368C60.5895 7.73684 61.3211 5.30526 61.3211 5.30526C55.9947 7.1421 53.6158 9.92105 52.5053 12.0947C46.4895 4.79474 39.4737 5.26842 39.4737 5.26842C43.5158 9.29474 45.8263 14.8421 46.9789 18.3316C40.1895 13.3579 32.3105 16.7895 32.3105 16.7895C39.0737 19.1579 42.4526 23.7579 44.0316 26.8789C37.2474 23.6842 30.0421 27.2105 30.0421 27.2105C35.4684 28.1947 39.2211 32.4842 41.7789 35.7316C46.7263 34.9 54.0158 34.9737 62.4053 39.1316C65.9368 36.8895 70.8947 34.1105 76.2579 34.9737C76.2579 34.9737 70.6632 29.2579 63.2053 30.0105Z" fill="url(#paint0_linear_5_2)"/>
<path d="M69.5 71.5053L62.7158 64.7421L53.3579 74.0632L60.1474 80.8211L69.5 71.5053Z" fill="url(#paint1_linear_5_2)"/>
<path d="M23.7053 69.3684L22.3947 70.6526C22.7368 74.3105 23.6947 77.9474 25.3 81.2737L30.5316 76.1684L23.7053 69.3684Z" fill="url(#paint2_linear_5_2)"/>
<path d="M32.5368 57.0368L26.5474 51.0684C26.2842 51.5053 26 51.8579 25.7474 52.3263C23.9263 55.5737 22.7421 59.8 22.3684 64.3263L23.7263 65.679L32.5368 57.0368Z" fill="url(#paint3_linear_5_2)"/>
<path d="M37.5 39.6316C34.8 41.2579 31.3211 44.0684 27.9947 48.8053L34.4105 55.2L42.7105 47.0684L43.8421 45.9579L38.5474 40.679L37.5 39.6316Z" fill="url(#paint4_linear_5_2)"/>
<path d="M72.1421 55.3526L64.5737 62.8947L71.3632 69.6526L73.8632 67.1579C74.0684 63.5368 73.7368 60.0737 72.8316 57.1789C72.6158 56.5053 72.3684 55.9737 72.1421 55.3526Z" fill="url(#paint5_linear_5_2)"/>
<path d="M32.3895 78.0158L26.5947 83.6737C28.2421 86.3158 30.4158 88.6368 33.1368 90.4947L39.0316 84.6263L32.3895 78.0158Z" fill="url(#paint6_linear_5_2)"/>
<path d="M66.4 44.8474L56.3263 54.6737L62.7158 61.0368L71.1316 52.6526C69.6368 49.2526 67.9737 46.7526 66.4 44.8474Z" fill="url(#paint7_linear_5_2)"/>
<path d="M25.5789 67.5316L32.4105 74.3263L41.2474 65.7053L34.4 58.8842L25.5789 67.5316Z" fill="url(#paint8_linear_5_2)"/>
<path d="M62.0053 82.679L66.2316 86.8895C69.3105 83.3948 71.4158 79.0947 72.6368 74.6263L71.3632 73.3579L62.0053 82.679Z" fill="url(#paint9_linear_5_2)"/>
<path d="M51.4947 75.9158L42.7526 84.6263L49.5316 91.3895L58.2842 82.6789L51.4947 75.9158Z" fill="url(#paint10_linear_5_2)"/>
<path d="M52.5842 54.6579L45.7105 47.8105L36.2737 57.0474L43.1263 63.879L52.5842 54.6579Z" fill="url(#paint11_linear_5_2)"/>
<path d="M51.3947 93.2421L52.6263 94.4684C57.3895 93.6789 61.2842 91.6053 64.379 88.7526L60.1421 84.5263L51.3947 93.2421Z" fill="url(#paint12_linear_5_2)"/>
<path d="M35.4842 91.8632C38.2263 93.2842 41.3842 94.3158 45.1316 94.7C45.4947 94.7368 45.8158 94.7105 46.1684 94.7368L47.6684 93.2421L40.8842 86.4842L35.4842 91.8632Z" fill="url(#paint13_linear_5_2)"/>
<path d="M60.8579 62.8895L54.4474 56.5053L44.9895 65.7263L51.4947 72.2105L60.8579 62.8895Z" fill="url(#paint14_linear_5_2)"/>
<path d="M49.6368 74.0632L43.1053 67.5632L34.2684 76.1842L40.8895 82.779L49.6368 74.0632Z" fill="url(#paint15_linear_5_2)"/>
<path d="M43.7158 38.1474C43.4684 38.1737 43.2526 38.2105 43.0211 38.2474C42.1211 38.3632 41.3 38.5105 40.5684 38.6789C40.4842 38.6947 40.3895 38.7105 40.3158 38.7263L40.3684 38.7789L45.7263 44.1158L51.5737 38.3842C48.6105 37.9211 45.9421 37.9105 43.7158 38.1474Z" fill="url(#paint16_linear_5_2)"/>
<path d="M60.879 41.3316C60.4947 41.1474 60.1105 40.9737 59.7316 40.8053C57.9737 40.0368 56.2842 39.4579 54.6579 39.0368L48.7368 44.8368L47.5842 45.9684L54.4684 52.8211L64.3316 43.1947C64 42.9947 63.6895 42.8211 63.3579 42.6368C62.5263 42.1632 61.7 41.7211 60.879 41.3316Z" fill="url(#paint17_linear_5_2)"/>
</g>
</g>
<defs>
<linearGradient id="paint0_linear_5_2" x1="53.8368" y1="5.26217" x2="53.8368" y2="39.1316" gradientUnits="userSpaceOnUse">
<stop offset="0.0604165" stop-color="#FFF176"/>
<stop offset="1" stop-color="#FF5C00" stop-opacity="0.61"/>
</linearGradient>
<linearGradient id="paint1_linear_5_2" x1="61.4289" y1="64.7421" x2="61.4289" y2="80.8211" gradientUnits="userSpaceOnUse">
<stop offset="0.0604165" stop-color="#FFF176"/>
<stop offset="1" stop-color="#FF5C00" stop-opacity="0.61"/>
</linearGradient>
<linearGradient id="paint2_linear_5_2" x1="26.4632" y1="69.3684" x2="26.4632" y2="81.2737" gradientUnits="userSpaceOnUse">
<stop offset="0.0604165" stop-color="#FFF176"/>
<stop offset="1" stop-color="#FF5C00" stop-opacity="0.61"/>
</linearGradient>
<linearGradient id="paint3_linear_5_2" x1="27.4526" y1="51.0684" x2="27.4526" y2="65.679" gradientUnits="userSpaceOnUse">
<stop offset="0.0604165" stop-color="#FFF176"/>
<stop offset="1" stop-color="#FF5C00" stop-opacity="0.61"/>
</linearGradient>
<linearGradient id="paint4_linear_5_2" x1="35.9184" y1="39.6316" x2="35.9184" y2="55.2" gradientUnits="userSpaceOnUse">
<stop offset="0.0604165" stop-color="#FFF176"/>
<stop offset="1" stop-color="#FF5C00" stop-opacity="0.61"/>
</linearGradient>
<linearGradient id="paint5_linear_5_2" x1="69.2477" y1="55.3526" x2="69.2477" y2="69.6526" gradientUnits="userSpaceOnUse">
<stop offset="0.0604165" stop-color="#FFF176"/>
<stop offset="1" stop-color="#FF5C00" stop-opacity="0.61"/>
</linearGradient>
<linearGradient id="paint6_linear_5_2" x1="32.8132" y1="78.0158" x2="32.8132" y2="90.4947" gradientUnits="userSpaceOnUse">
<stop offset="0.0604165" stop-color="#FFF176"/>
<stop offset="1" stop-color="#FF5C00" stop-opacity="0.61"/>
</linearGradient>
<linearGradient id="paint7_linear_5_2" x1="63.7289" y1="44.8474" x2="63.7289" y2="61.0368" gradientUnits="userSpaceOnUse">
<stop offset="0.0604165" stop-color="#FFF176"/>
<stop offset="1" stop-color="#FF5C00" stop-opacity="0.61"/>
</linearGradient>
<linearGradient id="paint8_linear_5_2" x1="33.4132" y1="58.8842" x2="33.4132" y2="74.3263" gradientUnits="userSpaceOnUse">
<stop offset="0.0604165" stop-color="#FFF176"/>
<stop offset="1" stop-color="#FF5C00" stop-opacity="0.61"/>
</linearGradient>
<linearGradient id="paint9_linear_5_2" x1="67.3211" y1="73.3579" x2="67.3211" y2="86.8895" gradientUnits="userSpaceOnUse">
<stop offset="0.0604165" stop-color="#FFF176"/>
<stop offset="1" stop-color="#FF5C00" stop-opacity="0.61"/>
</linearGradient>
<linearGradient id="paint10_linear_5_2" x1="50.5184" y1="75.9158" x2="50.5184" y2="91.3895" gradientUnits="userSpaceOnUse">
<stop offset="0.0604165" stop-color="#FFF176"/>
<stop offset="1" stop-color="#FF5C00" stop-opacity="0.61"/>
</linearGradient>
<linearGradient id="paint11_linear_5_2" x1="44.429" y1="47.8105" x2="44.429" y2="63.879" gradientUnits="userSpaceOnUse">
<stop offset="0.0604165" stop-color="#FFF176"/>
<stop offset="1" stop-color="#FF5C00" stop-opacity="0.61"/>
</linearGradient>
<linearGradient id="paint12_linear_5_2" x1="57.8869" y1="84.5263" x2="57.8869" y2="94.4684" gradientUnits="userSpaceOnUse">
<stop offset="0.0604165" stop-color="#FFF176"/>
<stop offset="1" stop-color="#FF5C00" stop-opacity="0.61"/>
</linearGradient>
<linearGradient id="paint13_linear_5_2" x1="41.5763" y1="86.4842" x2="41.5763" y2="94.7368" gradientUnits="userSpaceOnUse">
<stop offset="0.0604165" stop-color="#FFF176"/>
<stop offset="1" stop-color="#FF5C00" stop-opacity="0.61"/>
</linearGradient>
<linearGradient id="paint14_linear_5_2" x1="52.9237" y1="56.5053" x2="52.9237" y2="72.2105" gradientUnits="userSpaceOnUse">
<stop offset="0.0604165" stop-color="#FFF176"/>
<stop offset="1" stop-color="#FF5C00" stop-opacity="0.61"/>
</linearGradient>
<linearGradient id="paint15_linear_5_2" x1="41.9526" y1="67.5632" x2="41.9526" y2="82.779" gradientUnits="userSpaceOnUse">
<stop offset="0.0604165" stop-color="#FFF176"/>
<stop offset="1" stop-color="#FF5C00" stop-opacity="0.61"/>
</linearGradient>
<linearGradient id="paint16_linear_5_2" x1="45.9447" y1="37.9949" x2="45.9447" y2="44.1158" gradientUnits="userSpaceOnUse">
<stop offset="0.0604165" stop-color="#FFF176"/>
<stop offset="1" stop-color="#FF5C00" stop-opacity="0.61"/>
</linearGradient>
<linearGradient id="paint17_linear_5_2" x1="55.9579" y1="39.0368" x2="55.9579" y2="52.8211" gradientUnits="userSpaceOnUse">
<stop offset="0.0604165" stop-color="#FFF176"/>
<stop offset="1" stop-color="#FF5C00" stop-opacity="0.61"/>
</linearGradient>
<clipPath id="clip0_5_2">
<rect width="100" height="100" fill="white"/>
</clipPath>
<clipPath id="clip1_5_2">
<rect width="100" height="100" fill="white"/>
</clipPath>
</defs>
</svg>
