<svg width="300" height="100" viewBox="0 0 300 100" fill="none" xmlns="http://www.w3.org/2000/svg">
<rect width="300" height="100" fill="white"/>
<path d="M98.196 65H92.436V54.38C92.436 53.132 92.196 52.232 91.716 51.68C91.26 51.104 90.648 50.816 89.88 50.816C89.352 50.816 88.812 50.96 88.26 51.248C87.708 51.536 87.204 51.932 86.748 52.436C86.316 52.94 85.98 53.516 85.74 54.164V65H79.98V46.1H85.164V49.268C85.644 48.524 86.244 47.888 86.964 47.36C87.684 46.832 88.512 46.436 89.448 46.172C90.384 45.884 91.404 45.74 92.508 45.74C93.732 45.74 94.716 45.968 95.46 46.424C96.228 46.856 96.804 47.432 97.188 48.152C97.596 48.872 97.86 49.652 97.98 50.492C98.124 51.308 98.196 52.112 98.196 52.904V65ZM100.835 59.348C100.835 58.1 101.183 57.008 101.879 56.072C102.575 55.136 103.535 54.404 104.759 53.876C105.983 53.324 107.387 53.048 108.971 53.048C109.739 53.048 110.495 53.12 111.239 53.264C111.983 53.384 112.631 53.564 113.183 53.804V52.976C113.183 51.944 112.871 51.152 112.247 50.6C111.623 50.048 110.675 49.772 109.403 49.772C108.347 49.772 107.351 49.952 106.415 50.312C105.503 50.672 104.531 51.188 103.499 51.86L101.771 48.188C103.019 47.372 104.315 46.76 105.659 46.352C107.027 45.944 108.467 45.74 109.979 45.74C112.811 45.74 115.007 46.424 116.567 47.792C118.151 49.136 118.943 51.092 118.943 53.66V58.592C118.943 59.168 119.027 59.576 119.195 59.816C119.387 60.032 119.711 60.164 120.167 60.212V65C119.687 65.096 119.231 65.168 118.799 65.216C118.391 65.264 118.031 65.288 117.719 65.288C116.639 65.288 115.811 65.072 115.235 64.64C114.683 64.208 114.335 63.62 114.191 62.876L114.083 62.048C113.243 63.128 112.235 63.956 111.059 64.532C109.907 65.084 108.695 65.36 107.423 65.36C106.175 65.36 105.047 65.096 104.039 64.568C103.055 64.04 102.275 63.32 101.699 62.408C101.123 61.496 100.835 60.476 100.835 59.348ZM112.283 60.068C112.547 59.852 112.763 59.612 112.931 59.348C113.099 59.084 113.183 58.832 113.183 58.592V56.9C112.703 56.708 112.163 56.564 111.563 56.468C110.987 56.348 110.447 56.288 109.943 56.288C108.887 56.288 108.011 56.528 107.315 57.008C106.619 57.464 106.271 58.076 106.271 58.844C106.271 59.276 106.391 59.672 106.631 60.032C106.871 60.392 107.195 60.68 107.603 60.896C108.035 61.112 108.539 61.22 109.115 61.22C109.691 61.22 110.267 61.112 110.843 60.896C111.419 60.68 111.899 60.404 112.283 60.068ZM141.333 65H135.573V54.38C135.573 53.156 135.321 52.256 134.817 51.68C134.337 51.104 133.689 50.816 132.873 50.816C132.441 50.816 131.949 50.96 131.397 51.248C130.869 51.512 130.377 51.896 129.921 52.4C129.465 52.904 129.117 53.492 128.877 54.164V65H123.117V38.72H128.877V49.268C129.573 48.14 130.485 47.276 131.613 46.676C132.765 46.052 134.025 45.74 135.393 45.74C136.689 45.74 137.721 45.956 138.489 46.388C139.281 46.82 139.881 47.396 140.289 48.116C140.697 48.812 140.973 49.58 141.117 50.42C141.261 51.26 141.333 52.088 141.333 52.904V65ZM144.98 58.196V46.1H150.74V56.936C150.74 58.088 150.968 58.976 151.424 59.6C151.88 60.2 152.528 60.5 153.368 60.5C153.896 60.5 154.4 60.416 154.88 60.248C155.36 60.056 155.828 59.756 156.284 59.348C156.74 58.94 157.148 58.412 157.508 57.764V46.1H163.268V58.592C163.268 59.168 163.352 59.576 163.52 59.816C163.712 60.032 164.036 60.164 164.492 60.212V65C163.964 65.096 163.496 65.168 163.088 65.216C162.704 65.264 162.356 65.288 162.044 65.288C161.036 65.288 160.232 65.084 159.632 64.676C159.032 64.244 158.66 63.644 158.516 62.876L158.408 61.724C157.544 62.972 156.464 63.896 155.168 64.496C153.896 65.072 152.468 65.36 150.884 65.36C148.964 65.36 147.5 64.748 146.492 63.524C145.484 62.3 144.98 60.524 144.98 58.196ZM197.61 65H191.85V54.38C191.85 53.156 191.622 52.256 191.166 51.68C190.71 51.104 190.122 50.816 189.402 50.816C188.634 50.816 187.878 51.128 187.134 51.752C186.39 52.376 185.862 53.18 185.55 54.164V65H179.79V54.38C179.79 53.132 179.562 52.232 179.106 51.68C178.65 51.104 178.062 50.816 177.342 50.816C176.598 50.816 175.854 51.128 175.11 51.752C174.366 52.376 173.826 53.18 173.49 54.164V65H167.73V46.1H172.914V49.268C173.61 48.14 174.546 47.276 175.722 46.676C176.922 46.052 178.314 45.74 179.898 45.74C181.458 45.74 182.658 46.112 183.498 46.856C184.338 47.576 184.878 48.428 185.118 49.412C185.838 48.236 186.786 47.336 187.962 46.712C189.162 46.064 190.506 45.74 191.994 45.74C193.194 45.74 194.166 45.968 194.91 46.424C195.654 46.856 196.218 47.432 196.602 48.152C196.986 48.872 197.25 49.652 197.394 50.492C197.538 51.308 197.61 52.112 197.61 52.904V65ZM221.729 65.36C220.313 65.36 219.077 65.06 218.021 64.46C216.965 63.836 216.137 62.996 215.537 61.94V72.668H209.777V46.1H214.781V49.16C215.477 48.08 216.353 47.24 217.409 46.64C218.465 46.04 219.701 45.74 221.117 45.74C222.389 45.74 223.553 45.992 224.609 46.496C225.689 47 226.625 47.696 227.417 48.584C228.209 49.472 228.821 50.504 229.253 51.68C229.685 52.856 229.901 54.128 229.901 55.496C229.901 57.368 229.553 59.048 228.857 60.536C228.161 62.024 227.189 63.2 225.941 64.064C224.717 64.928 223.313 65.36 221.729 65.36ZM219.785 60.5C220.409 60.5 220.973 60.368 221.477 60.104C222.005 59.816 222.461 59.444 222.845 58.988C223.229 58.532 223.517 58.004 223.709 57.404C223.925 56.78 224.033 56.132 224.033 55.46C224.033 54.764 223.913 54.128 223.673 53.552C223.457 52.976 223.145 52.472 222.737 52.04C222.329 51.584 221.849 51.236 221.297 50.996C220.745 50.756 220.145 50.636 219.497 50.636C219.113 50.636 218.717 50.696 218.309 50.816C217.925 50.936 217.553 51.116 217.193 51.356C216.857 51.572 216.545 51.836 216.257 52.148C215.969 52.46 215.729 52.82 215.537 53.228V57.116C215.801 57.764 216.149 58.34 216.581 58.844C217.013 59.348 217.505 59.756 218.057 60.068C218.609 60.356 219.185 60.5 219.785 60.5ZM232.804 65V46.1H238.564V65H232.804ZM232.804 43.94V38.72H238.564V43.94H232.804ZM260.723 65H254.963V54.38C254.963 53.132 254.723 52.232 254.243 51.68C253.787 51.104 253.175 50.816 252.407 50.816C251.879 50.816 251.339 50.96 250.787 51.248C250.235 51.536 249.731 51.932 249.275 52.436C248.843 52.94 248.507 53.516 248.267 54.164V65H242.507V46.1H247.691V49.268C248.171 48.524 248.771 47.888 249.491 47.36C250.211 46.832 251.039 46.436 251.975 46.172C252.911 45.884 253.931 45.74 255.035 45.74C256.259 45.74 257.243 45.968 257.987 46.424C258.755 46.856 259.331 47.432 259.715 48.152C260.123 48.872 260.387 49.652 260.507 50.492C260.651 51.308 260.723 52.112 260.723 52.904V65ZM254.603 43.832C253.883 43.832 253.259 43.7 252.731 43.436C252.203 43.148 251.723 42.872 251.291 42.608C250.859 42.32 250.367 42.176 249.815 42.176C249.287 42.176 248.903 42.308 248.663 42.572C248.423 42.836 248.267 43.112 248.195 43.4C248.147 43.688 248.123 43.856 248.123 43.904H245.027C245.027 43.64 245.099 43.232 245.243 42.68C245.411 42.104 245.675 41.528 246.035 40.952C246.419 40.352 246.899 39.848 247.475 39.44C248.051 39.008 248.759 38.792 249.599 38.792C250.367 38.792 250.991 38.936 251.471 39.224C251.975 39.512 252.443 39.8 252.875 40.088C253.331 40.376 253.835 40.52 254.387 40.52C254.963 40.52 255.371 40.388 255.611 40.124C255.875 39.836 256.043 39.536 256.115 39.224C256.211 38.912 256.259 38.744 256.259 38.72H259.355C259.355 38.912 259.271 39.284 259.103 39.836C258.935 40.364 258.659 40.94 258.275 41.564C257.915 42.164 257.435 42.692 256.835 43.148C256.235 43.604 255.491 43.832 254.603 43.832ZM263.362 59.348C263.362 58.1 263.71 57.008 264.406 56.072C265.102 55.136 266.062 54.404 267.286 53.876C268.51 53.324 269.914 53.048 271.498 53.048C272.266 53.048 273.022 53.12 273.766 53.264C274.51 53.384 275.158 53.564 275.71 53.804V52.976C275.71 51.944 275.398 51.152 274.774 50.6C274.15 50.048 273.202 49.772 271.93 49.772C270.874 49.772 269.878 49.952 268.942 50.312C268.03 50.672 267.058 51.188 266.026 51.86L264.298 48.188C265.546 47.372 266.842 46.76 268.186 46.352C269.554 45.944 270.994 45.74 272.506 45.74C275.338 45.74 277.534 46.424 279.094 47.792C280.678 49.136 281.47 51.092 281.47 53.66V58.592C281.47 59.168 281.554 59.576 281.722 59.816C281.914 60.032 282.238 60.164 282.694 60.212V65C282.214 65.096 281.758 65.168 281.326 65.216C280.918 65.264 280.558 65.288 280.246 65.288C279.166 65.288 278.338 65.072 277.762 64.64C277.21 64.208 276.862 63.62 276.718 62.876L276.61 62.048C275.77 63.128 274.762 63.956 273.586 64.532C272.434 65.084 271.222 65.36 269.95 65.36C268.702 65.36 267.574 65.096 266.566 64.568C265.582 64.04 264.802 63.32 264.226 62.408C263.65 61.496 263.362 60.476 263.362 59.348ZM274.81 60.068C275.074 59.852 275.29 59.612 275.458 59.348C275.626 59.084 275.71 58.832 275.71 58.592V56.9C275.23 56.708 274.69 56.564 274.09 56.468C273.514 56.348 272.974 56.288 272.47 56.288C271.414 56.288 270.538 56.528 269.842 57.008C269.146 57.464 268.798 58.076 268.798 58.844C268.798 59.276 268.918 59.672 269.158 60.032C269.398 60.392 269.722 60.68 270.13 60.896C270.562 61.112 271.066 61.22 271.642 61.22C272.218 61.22 272.794 61.112 273.37 60.896C273.946 60.68 274.426 60.404 274.81 60.068Z" fill="url(#paint0_linear_5_113)"/>
<path d="M62.5139 34.6632C64.5211 32.8454 68.2884 30.4163 74 30.4322C74 30.4322 69.0008 26.0186 62.5768 27.8563C64.3745 25.6614 67.5802 22.2996 71.6911 20.4501C71.6911 20.4501 66.6415 18.4139 60.2762 21.9384C60.4312 17.8662 61.0137 16.0325 61.0137 16.0325C56.773 17.4177 54.8789 19.5134 53.9947 21.1526C49.205 15.6475 43.619 16.0047 43.619 16.0047C46.8373 19.041 48.677 23.2244 49.5947 25.8559C44.189 22.1051 37.9158 24.693 37.9158 24.693C43.3006 26.479 45.9909 29.948 47.248 32.3016C41.8465 29.8924 36.1097 32.5517 36.1097 32.5517C40.4301 33.2939 43.4179 36.5287 45.4545 38.9776C49.3935 38.3505 55.1973 38.4061 61.877 41.5416C64.6888 39.8508 68.6362 37.7551 72.9063 38.4061C72.9063 38.4061 68.4518 34.0957 62.5139 34.6632Z" fill="url(#paint1_linear_5_113)"/>
<path d="M67.5257 65.9553L62.1242 60.855L54.6735 67.8842L60.0792 72.9805L67.5257 65.9553Z" fill="url(#paint2_linear_5_113)"/>
<path d="M31.0644 64.3438L30.021 65.3123C30.2933 68.0708 31.056 70.8134 32.3341 73.3218L36.4994 69.4718L31.0644 64.3438Z" fill="url(#paint3_linear_5_113)"/>
<path d="M38.096 55.0443L33.3272 50.5434C33.1177 50.8729 32.8914 51.1388 32.6903 51.492C31.2404 53.9409 30.2975 57.1281 30 60.5415L31.0811 61.5615L38.096 55.0443Z" fill="url(#paint4_linear_5_113)"/>
<path d="M42.0476 41.9187C39.8979 43.1451 37.128 45.2646 34.4796 48.8367L39.5878 53.6591L46.1962 47.5269L47.0971 46.6895L42.8815 42.7085L42.0476 41.9187Z" fill="url(#paint5_linear_5_113)"/>
<path d="M69.6293 53.7742L63.6034 59.4619L69.0091 64.5582L70.9996 62.6768C71.163 59.9461 70.899 57.3345 70.1783 55.1515C70.0065 54.6435 69.8095 54.2426 69.6293 53.7742Z" fill="url(#paint6_linear_5_113)"/>
<path d="M37.9787 70.865L33.365 75.1317C34.6766 77.1242 36.4072 78.8745 38.5737 80.2756L43.267 75.8501L37.9787 70.865Z" fill="url(#paint7_linear_5_113)"/>
<path d="M65.0575 45.852L57.0369 53.2622L62.1242 58.0608L68.8248 51.7381C67.6347 49.1741 66.3105 47.2888 65.0575 45.852Z" fill="url(#paint8_linear_5_113)"/>
<path d="M32.5562 62.9586L37.9954 68.0827L45.0312 61.5814L39.5794 56.4375L32.5562 62.9586Z" fill="url(#paint9_linear_5_113)"/>
<path d="M61.5585 74.3816L64.9234 77.5568C67.3749 74.9214 69.051 71.6786 70.0232 68.3089L69.0091 67.3524L61.5585 74.3816Z" fill="url(#paint10_linear_5_113)"/>
<path d="M53.1901 69.2813L46.2297 75.8501L51.627 80.9503L58.5958 74.3816L53.1901 69.2813Z" fill="url(#paint11_linear_5_113)"/>
<path d="M54.0575 53.2503L48.5848 48.0866L41.0712 55.0523L46.5272 60.2041L54.0575 53.2503Z" fill="url(#paint12_linear_5_113)"/>
<path d="M53.1105 82.3475L54.091 83.2722C57.8834 82.6769 60.9844 81.1131 63.4484 78.9619L60.075 75.7747L53.1105 82.3475Z" fill="url(#paint13_linear_5_113)"/>
<path d="M40.4427 81.3076C42.6259 82.3792 45.1402 83.1571 48.1238 83.4469C48.413 83.4747 48.6686 83.4548 48.9493 83.4747L50.1436 82.3475L44.7421 77.2512L40.4427 81.3076Z" fill="url(#paint14_linear_5_113)"/>
<path d="M60.645 59.4579L55.541 54.6435L48.0107 61.5972L53.1901 66.4871L60.645 59.4579Z" fill="url(#paint15_linear_5_113)"/>
<path d="M51.7109 67.8842L46.5105 62.9825L39.4747 69.4838L44.7463 74.457L51.7109 67.8842Z" fill="url(#paint16_linear_5_113)"/>
<path d="M46.9966 40.7994C46.7996 40.8192 46.6278 40.847 46.4434 40.8748C45.7269 40.9621 45.0731 41.0733 44.4907 41.2003C44.4236 41.2122 44.3482 41.2241 44.2895 41.236L44.3314 41.2757L48.5973 45.3003L53.2529 40.978C50.8937 40.6287 48.7691 40.6208 46.9966 40.7994Z" fill="url(#paint17_linear_5_113)"/>
<path d="M60.6617 43.2007C60.3558 43.0618 60.0499 42.9308 59.7482 42.8038C58.3486 42.2243 57.0034 41.7877 55.7086 41.4702L50.9943 45.8441L50.0766 46.6974L55.5577 51.8651L63.4107 44.6057C63.1467 44.4549 62.8994 44.3239 62.6354 44.185C61.9733 43.8278 61.3154 43.4944 60.6617 43.2007Z" fill="url(#paint18_linear_5_113)"/>
<defs>
<linearGradient id="paint0_linear_5_113" x1="181" y1="31" x2="181" y2="73" gradientUnits="userSpaceOnUse">
<stop stop-color="#FFF176"/>
<stop offset="1" stop-color="#FF5C00" stop-opacity="0.61"/>
</linearGradient>
<linearGradient id="paint1_linear_5_113" x1="55.0549" y1="16" x2="55.0549" y2="41.5416" gradientUnits="userSpaceOnUse">
<stop offset="0.0604165" stop-color="#FFF176"/>
<stop offset="1" stop-color="#FF5C00" stop-opacity="0.61"/>
</linearGradient>
<linearGradient id="paint2_linear_5_113" x1="61.0996" y1="60.855" x2="61.0996" y2="72.9805" gradientUnits="userSpaceOnUse">
<stop offset="0.0604165" stop-color="#FFF176"/>
<stop offset="1" stop-color="#FF5C00" stop-opacity="0.61"/>
</linearGradient>
<linearGradient id="paint3_linear_5_113" x1="33.2602" y1="64.3438" x2="33.2602" y2="73.3218" gradientUnits="userSpaceOnUse">
<stop offset="0.0604165" stop-color="#FFF176"/>
<stop offset="1" stop-color="#FF5C00" stop-opacity="0.61"/>
</linearGradient>
<linearGradient id="paint4_linear_5_113" x1="34.048" y1="50.5434" x2="34.048" y2="61.5615" gradientUnits="userSpaceOnUse">
<stop offset="0.0604165" stop-color="#FFF176"/>
<stop offset="1" stop-color="#FF5C00" stop-opacity="0.61"/>
</linearGradient>
<linearGradient id="paint5_linear_5_113" x1="40.7884" y1="41.9187" x2="40.7884" y2="53.6591" gradientUnits="userSpaceOnUse">
<stop offset="0.0604165" stop-color="#FFF176"/>
<stop offset="1" stop-color="#FF5C00" stop-opacity="0.61"/>
</linearGradient>
<linearGradient id="paint6_linear_5_113" x1="67.3249" y1="53.7742" x2="67.3249" y2="64.5582" gradientUnits="userSpaceOnUse">
<stop offset="0.0604165" stop-color="#FFF176"/>
<stop offset="1" stop-color="#FF5C00" stop-opacity="0.61"/>
</linearGradient>
<linearGradient id="paint7_linear_5_113" x1="38.316" y1="70.865" x2="38.316" y2="80.2756" gradientUnits="userSpaceOnUse">
<stop offset="0.0604165" stop-color="#FFF176"/>
<stop offset="1" stop-color="#FF5C00" stop-opacity="0.61"/>
</linearGradient>
<linearGradient id="paint8_linear_5_113" x1="62.9309" y1="45.852" x2="62.9309" y2="58.0608" gradientUnits="userSpaceOnUse">
<stop offset="0.0604165" stop-color="#FFF176"/>
<stop offset="1" stop-color="#FF5C00" stop-opacity="0.61"/>
</linearGradient>
<linearGradient id="paint9_linear_5_113" x1="38.7937" y1="56.4375" x2="38.7937" y2="68.0827" gradientUnits="userSpaceOnUse">
<stop offset="0.0604165" stop-color="#FFF176"/>
<stop offset="1" stop-color="#FF5C00" stop-opacity="0.61"/>
</linearGradient>
<linearGradient id="paint10_linear_5_113" x1="65.7909" y1="67.3524" x2="65.7909" y2="77.5568" gradientUnits="userSpaceOnUse">
<stop offset="0.0604165" stop-color="#FFF176"/>
<stop offset="1" stop-color="#FF5C00" stop-opacity="0.61"/>
</linearGradient>
<linearGradient id="paint11_linear_5_113" x1="52.4128" y1="69.2813" x2="52.4128" y2="80.9503" gradientUnits="userSpaceOnUse">
<stop offset="0.0604165" stop-color="#FFF176"/>
<stop offset="1" stop-color="#FF5C00" stop-opacity="0.61"/>
</linearGradient>
<linearGradient id="paint12_linear_5_113" x1="47.5644" y1="48.0866" x2="47.5644" y2="60.2041" gradientUnits="userSpaceOnUse">
<stop offset="0.0604165" stop-color="#FFF176"/>
<stop offset="1" stop-color="#FF5C00" stop-opacity="0.61"/>
</linearGradient>
<linearGradient id="paint13_linear_5_113" x1="58.2794" y1="75.7747" x2="58.2794" y2="83.2722" gradientUnits="userSpaceOnUse">
<stop offset="0.0604165" stop-color="#FFF176"/>
<stop offset="1" stop-color="#FF5C00" stop-opacity="0.61"/>
</linearGradient>
<linearGradient id="paint14_linear_5_113" x1="45.2931" y1="77.2512" x2="45.2931" y2="83.4747" gradientUnits="userSpaceOnUse">
<stop offset="0.0604165" stop-color="#FFF176"/>
<stop offset="1" stop-color="#FF5C00" stop-opacity="0.61"/>
</linearGradient>
<linearGradient id="paint15_linear_5_113" x1="54.3278" y1="54.6435" x2="54.3278" y2="66.4871" gradientUnits="userSpaceOnUse">
<stop offset="0.0604165" stop-color="#FFF176"/>
<stop offset="1" stop-color="#FF5C00" stop-opacity="0.61"/>
</linearGradient>
<linearGradient id="paint16_linear_5_113" x1="45.5928" y1="62.9825" x2="45.5928" y2="74.457" gradientUnits="userSpaceOnUse">
<stop offset="0.0604165" stop-color="#FFF176"/>
<stop offset="1" stop-color="#FF5C00" stop-opacity="0.61"/>
</linearGradient>
<linearGradient id="paint17_linear_5_113" x1="48.7712" y1="40.6844" x2="48.7712" y2="45.3003" gradientUnits="userSpaceOnUse">
<stop offset="0.0604165" stop-color="#FFF176"/>
<stop offset="1" stop-color="#FF5C00" stop-opacity="0.61"/>
</linearGradient>
<linearGradient id="paint18_linear_5_113" x1="56.7436" y1="41.4702" x2="56.7436" y2="51.8651" gradientUnits="userSpaceOnUse">
<stop offset="0.0604165" stop-color="#FFF176"/>
<stop offset="1" stop-color="#FF5C00" stop-opacity="0.61"/>
</linearGradient>
</defs>
</svg>
